<svg xmlns="http://www.w3.org/2000/svg" xmlns:xlink="http://www.w3.org/1999/xlink" viewBox="0 0 128 128" width="128" height="128"><ellipse cx="64" cy="114" rx="34" ry="7.48" fill="#000" opacity=".12"/><circle cx="64" cy="64" r="46" fill="#FFFFFF" /><path d="M64,18 A46,46 0 0 1 108,52 Q84,54 64,64 Z" fill="#E53935" /><path d="M108,52 A46,46 0 0 1 98,96 Q82,80 64,64 Q84,54 108,52 Z" fill="#FDD835" /><path d="M98,96 A46,46 0 0 1 40,104 Q54,84 64,64 Q82,80 98,96 Z" fill="#1E88E5" /><path d="M40,104 A46,46 0 0 1 18,60 Q42,56 64,64 Q54,84 40,104 Z" fill="#43A047" /><circle cx="64" cy="64" r="46" fill="none" stroke="#455A64" stroke-width="2.5" /><circle cx="64" cy="64" r="6" fill="#FFFFFF" stroke="#455A64" stroke-width="2" /><ellipse cx="44" cy="36" rx="10" ry="6" fill="#FFFFFF" opacity=".5" transform="rotate(-30 44 36)"/></svg>