<svg xmlns="http://www.w3.org/2000/svg" viewBox="0 0 128 128" width="128" height="128">
<!-- face -->
<circle cx="52" cy="72" r="38" fill="#FFE0C7" stroke="#2A2230" stroke-width="2.5"/>
<path d="M14,68 Q14,26 52,30 Q90,26 90,68 Q81,44 52,46 Q23,44 14,68 Z" fill="#7A4A26" stroke="#2A2230" stroke-width="2.5" stroke-linejoin="round"/>
<!-- pained eyes and brows -->
<path d="M30,58 l8,4 M74,58 l-8,4" fill="none" stroke="#2A2230" stroke-width="3" stroke-linecap="round"/>
<path d="M32,70 l7,3 l-7,3 M72,70 l-7,3 l7,3" fill="none" stroke="#2A2230" stroke-width="3" stroke-linecap="round" stroke-linejoin="round"/>
<!-- clenched, frowning mouth with one sore red tooth -->
<path d="M36,94 Q52,82 68,94 L68,100 Q52,90 36,100 Z" fill="#FFFFFF" stroke="#2A2230" stroke-width="2.5" stroke-linejoin="round"/>
<path d="M36,97 Q52,86 68,97" fill="none" stroke="#2A2230" stroke-width="1.4"/>
<path d="M44,89.6 V95.8 M52,87.6 V93.6 M60,89.6 V95.8" stroke="#2A2230" stroke-width="1.2"/>
<path d="M52,87.6 Q56.5,88 60,89.6 V93.2 Q56.5,91.8 52,91.5 Z" fill="#EF5350"/>
<!-- tear -->
<path d="M28,80 q-4,7 0,10 q4,-3 0,-10 Z" fill="#64B5F6"/>
<!-- hand pressing the sore cheek -->
<path d="M80,104 Q74,92 78,80 Q82,70 90,74 Q96,78 94,90 L98,110 Q90,116 80,104 Z" fill="#FFE0C7" stroke="#2A2230" stroke-width="2.5" stroke-linejoin="round"/>
<path d="M80,82 q4,-2 8,1 M79,89 q4,-2 9,1" fill="none" stroke="#2A2230" stroke-width="1.6" stroke-linecap="round"/>
<!-- big sad tooth with throbbing pain marks -->
<path d="M92,14 Q100,10 106,14 Q112,10 120,14 Q126,20 122,30 Q119,38 118,48 Q117,54 114,50 L110,40 Q106,38 104,40 L100,50 Q97,54 96,48 Q95,38 92,30 Q88,20 92,14 Z" fill="#FFFFFF" stroke="#2A2230" stroke-width="2.5" stroke-linejoin="round"/>
<path d="M100,25 l3,2 M115,25 l-3,2" stroke="#2A2230" stroke-width="2" stroke-linecap="round"/>
<path d="M102,34 Q107,30 112,34" fill="none" stroke="#2A2230" stroke-width="2" stroke-linecap="round"/>
<path d="M86,10 l-5,-4 M84,22 h-6 M124,8 l3,-4" fill="none" stroke="#E53935" stroke-width="3" stroke-linecap="round"/>
<path d="M90,58 l-6,7 h6 l-6,7" fill="none" stroke="#E53935" stroke-width="3" stroke-linecap="round" stroke-linejoin="round"/>
</svg>
