<svg xmlns="http://www.w3.org/2000/svg" viewBox="-6 -6 140 144" width="128" height="128"><defs><filter id="stk" x="-25%" y="-25%" width="150%" height="150%" color-interpolation-filters="sRGB"><feMorphology in="SourceAlpha" operator="dilate" radius="4.2" result="d"/><feFlood flood-color="#FFFFFF"/><feComposite in2="d" operator="in" result="w"/><feGaussianBlur in="d" stdDeviation="2.2" result="b"/><feOffset in="b" dy="2.6" result="ob"/><feFlood flood-color="#2A2230" flood-opacity=".28"/><feComposite in2="ob" operator="in" result="sh"/><feMerge><feMergeNode in="sh"/><feMergeNode in="w"/><feMergeNode in="SourceGraphic"/></feMerge></filter><radialGradient id="g1" cx="0.35" cy="0.28" r="0.85"><stop offset="0" stop-color="#FF9AA6"/><stop offset="1" stop-color="#E8344E"/></radialGradient><linearGradient id="g2" x1="0" y1="0" x2="0" y2="1"><stop offset="0" stop-color="#8E1B2C"/><stop offset="1" stop-color="#1E1530"/></linearGradient><linearGradient id="g3" x1="0" y1="0" x2="0" y2="1"><stop offset="0" stop-color="#8E1B2C"/><stop offset="1" stop-color="#1E1530"/></linearGradient></defs><g filter="url(#stk)"><path d="M64,98 Q56,108 66,114 Q76,120 62,128" fill="none" stroke="#2A2230" stroke-width="2.2" stroke-linejoin="round" stroke-linecap="round"/><path d="M64,8 Q104,8 104,50 Q104,82 70,96 L58,96 Q24,82 24,50 Q24,8 64,8 Z" fill="url(#g1)" stroke="#2A2230" stroke-width="2.6" stroke-linejoin="round" stroke-linecap="round"/><path d="M58,96 L56,104 L72,104 L70,96 Z" fill="#E8344E" stroke="#2A2230" stroke-width="2" stroke-linejoin="round" stroke-linecap="round"/><ellipse cx="52.45" cy="52" rx="6.35" ry="8.14" fill="#2A2230"/><ellipse cx="52.45" cy="54.28" rx="4.57" ry="4.72" fill="url(#g2)" opacity=".95"/><ellipse cx="50.42" cy="48.91" rx="2.67" ry="2.93" fill="#fff"/><circle cx="54.86" cy="55.42" r="1.38" fill="#fff"/><ellipse cx="75.55" cy="52" rx="6.35" ry="8.14" fill="#2A2230"/><ellipse cx="75.55" cy="54.28" rx="4.57" ry="4.72" fill="url(#g3)" opacity=".95"/><ellipse cx="73.52" cy="48.91" rx="2.67" ry="2.93" fill="#fff"/><circle cx="77.96" cy="55.42" r="1.38" fill="#fff"/><ellipse cx="48.25" cy="60.925" rx="5.460000000000001" ry="3.2550000000000003" fill="#FF7BA6" opacity=".45"/><path d="M45.247,62.324999999999996 l2,-3 M47.65,62.324999999999996 l2,-3 M50.707,62.324999999999996 l2,-3" stroke="#E2557F" stroke-width="1.1" stroke-linecap="round" opacity=".7"/><ellipse cx="79.75" cy="60.925" rx="5.460000000000001" ry="3.2550000000000003" fill="#FF7BA6" opacity=".45"/><path d="M76.747,62.324999999999996 l2,-3 M79.15,62.324999999999996 l2,-3 M82.207,62.324999999999996 l2,-3" stroke="#E2557F" stroke-width="1.1" stroke-linecap="round" opacity=".7"/><path d="M59.17,59.35 Q64,66.595 68.83,59.35 Z" fill="#7A2340" stroke="#2A2230" stroke-width="2.2" stroke-linejoin="round" stroke-linecap="round"/><path d="M61.3435,62.3446 Q64,60.316 66.6565,62.3446 Q64,64.42150000000001 61.3435,62.3446 Z" fill="#FF6F91"/><ellipse cx="44" cy="30" rx="8" ry="13" fill="#fff" opacity=".6" transform="rotate(25 44 30)"/><circle cx="54" cy="18" r="3" fill="#fff" opacity=".7"/><path d="M112,16 Q113.32,20.68 118,22 Q113.32,23.32 112,28 Q110.68,23.32 106,22 Q110.68,20.68 112,16 Z" fill="#FFD23F" stroke="#2A2230" stroke-width="1.4" stroke-linejoin="round" stroke-linecap="round"/><path d="M16,85.5 Q16.99,89.01 20.5,90 Q16.99,90.99 16,94.5 Q15.01,90.99 11.5,90 Q15.01,89.01 16,85.5 Z" fill="#FFD23F" stroke="#2A2230" stroke-width="1.4" stroke-linejoin="round" stroke-linecap="round"/><path d="M110,88.5 Q110.77,91.23 113.5,92 Q110.77,92.77 110,95.5 Q109.23,92.77 106.5,92 Q109.23,91.23 110,88.5 Z" fill="#FFD23F" stroke="#2A2230" stroke-width="1.4" stroke-linejoin="round" stroke-linecap="round"/></g></svg>