<svg xmlns="http://www.w3.org/2000/svg" viewBox="-6 -6 140 140" width="128" height="128"><defs><filter id="stk" x="-25%" y="-25%" width="150%" height="150%" color-interpolation-filters="sRGB"><feMorphology in="SourceAlpha" operator="dilate" radius="4.2" result="d"/><feFlood flood-color="#FFFFFF"/><feComposite in2="d" operator="in" result="w"/><feGaussianBlur in="d" stdDeviation="2.2" result="b"/><feOffset in="b" dy="2.6" result="ob"/><feFlood flood-color="#2A2230" flood-opacity=".28"/><feComposite in2="ob" operator="in" result="sh"/><feMerge><feMergeNode in="sh"/><feMergeNode in="w"/><feMergeNode in="SourceGraphic"/></feMerge></filter><radialGradient id="g1" cx="0.38" cy="0.3" r="0.9"><stop offset="0" stop-color="#FFFFFF"/><stop offset="1" stop-color="#D3DAE6"/></radialGradient><clipPath id="ballclip"><circle cx="64" cy="64" r="50"/></clipPath><linearGradient id="g2" x1="0" y1="0" x2="0" y2="1"><stop offset="0" stop-color="#3B4A78"/><stop offset="1" stop-color="#1E1530"/></linearGradient><linearGradient id="g3" x1="0" y1="0" x2="0" y2="1"><stop offset="0" stop-color="#3B4A78"/><stop offset="1" stop-color="#1E1530"/></linearGradient></defs><g filter="url(#stk)"><circle cx="64" cy="64" r="50" fill="url(#g1)" stroke="#2A2230" stroke-width="2.6" stroke-linejoin="round" stroke-linecap="round"/><g clip-path="url(#ballclip)"><polygon points="64.0,18.0 75.4,26.3 71.1,39.7 56.9,39.7 52.6,26.3" fill="#3B3550" stroke="#2A2230" stroke-width="2" stroke-linejoin="round" stroke-linecap="round"/><polygon points="85.7,34.1 81.8,21.8 92.2,14.2 102.7,21.8 98.7,34.1" fill="#3B3550" stroke="#2A2230" stroke-width="2" stroke-linejoin="round" stroke-linecap="round"/><polygon points="99.2,75.4 109.7,67.8 120.1,75.4 116.1,87.7 103.2,87.7" fill="#3B3550" stroke="#2A2230" stroke-width="2" stroke-linejoin="round" stroke-linecap="round"/><polygon points="64.0,101.0 74.5,108.6 70.5,120.9 57.5,120.9 53.5,108.6" fill="#3B3550" stroke="#2A2230" stroke-width="2" stroke-linejoin="round" stroke-linecap="round"/><polygon points="28.8,75.4 24.8,87.7 11.9,87.7 7.9,75.4 18.3,67.8" fill="#3B3550" stroke="#2A2230" stroke-width="2" stroke-linejoin="round" stroke-linecap="round"/><polygon points="42.3,34.1 29.3,34.1 25.3,21.8 35.8,14.2 46.2,21.8" fill="#3B3550" stroke="#2A2230" stroke-width="2" stroke-linejoin="round" stroke-linecap="round"/><path d="M64.0,18.0 L64.0,8.0" stroke="#3B3550" stroke-width="2"/><path d="M75.4,26.3 L84.9,23.2" stroke="#3B3550" stroke-width="2"/><path d="M71.1,39.7 L76.9,47.8" stroke="#3B3550" stroke-width="2"/><path d="M56.9,39.7 L51.1,47.8" stroke="#3B3550" stroke-width="2"/><path d="M52.6,26.3 L43.1,23.2" stroke="#3B3550" stroke-width="2"/></g><ellipse cx="64" cy="78" rx="27" ry="17" fill="#FFFFFF" opacity=".92"/><ellipse cx="53.2" cy="74" rx="5.44" ry="6.97" fill="#2A2230"/><ellipse cx="53.20" cy="75.95" rx="3.92" ry="4.05" fill="url(#g2)" opacity=".95"/><ellipse cx="51.46" cy="71.35" rx="2.29" ry="2.51" fill="#fff"/><circle cx="55.27" cy="76.93" r="1.19" fill="#fff"/><ellipse cx="74.8" cy="74" rx="5.44" ry="6.97" fill="#2A2230"/><ellipse cx="74.80" cy="75.95" rx="3.92" ry="4.05" fill="url(#g3)" opacity=".95"/><ellipse cx="73.06" cy="71.35" rx="2.29" ry="2.51" fill="#fff"/><circle cx="76.87" cy="76.93" r="1.19" fill="#fff"/><ellipse cx="49.6" cy="81.65" rx="4.680000000000001" ry="2.79" fill="#FF7BA6" opacity=".45"/><path d="M47.026,83.05000000000001 l2,-3 M49.0,83.05000000000001 l2,-3 M51.706,83.05000000000001 l2,-3" stroke="#E2557F" stroke-width="1.1" stroke-linecap="round" opacity=".7"/><ellipse cx="78.39999999999999" cy="81.65" rx="4.680000000000001" ry="2.79" fill="#FF7BA6" opacity=".45"/><path d="M75.826,83.05000000000001 l2,-3 M77.8,83.05000000000001 l2,-3 M80.50599999999999,83.05000000000001 l2,-3" stroke="#E2557F" stroke-width="1.1" stroke-linecap="round" opacity=".7"/><path d="M59.86,80.3 Q64,86.50999999999999 68.14,80.3 Z" fill="#7A2340" stroke="#2A2230" stroke-width="2.2" stroke-linejoin="round" stroke-linecap="round"/><path d="M61.723,82.8668 Q64,81.128 66.277,82.8668 Q64,84.64699999999999 61.723,82.8668 Z" fill="#FF6F91"/><circle cx="64" cy="64" r="50" fill="none" stroke="#2A2230" stroke-width="2.6" stroke-linejoin="round" stroke-linecap="round"/><ellipse cx="40" cy="36" rx="12" ry="6" fill="#fff" opacity="0.7" transform="rotate(-35 40 36)"/><path d="M116,12 Q117.32,16.68 122,18 Q117.32,19.32 116,24 Q114.68,19.32 110,18 Q114.68,16.68 116,12 Z" fill="#FFD23F" stroke="#2A2230" stroke-width="1.4" stroke-linejoin="round" stroke-linecap="round"/><path d="M12,105.5 Q12.99,109.01 16.5,110 Q12.99,110.99 12,114.5 Q11.01,110.99 7.5,110 Q11.01,109.01 12,105.5 Z" fill="#FFD23F" stroke="#2A2230" stroke-width="1.4" stroke-linejoin="round" stroke-linecap="round"/></g></svg>