<svg xmlns="http://www.w3.org/2000/svg" viewBox="-6 -6 140 140" width="128" height="128"><defs><filter id="stk" x="-25%" y="-25%" width="150%" height="150%" color-interpolation-filters="sRGB"><feMorphology in="SourceAlpha" operator="dilate" radius="4.2" result="d"/><feFlood flood-color="#FFFFFF"/><feComposite in2="d" operator="in" result="w"/><feGaussianBlur in="d" stdDeviation="2.2" result="b"/><feOffset in="b" dy="2.6" result="ob"/><feFlood flood-color="#2A2230" flood-opacity=".28"/><feComposite in2="ob" operator="in" result="sh"/><feMerge><feMergeNode in="sh"/><feMergeNode in="w"/><feMergeNode in="SourceGraphic"/></feMerge></filter><radialGradient id="g1" cx="0.4" cy="0.3" r="0.9"><stop offset="0" stop-color="#FFFFFF"/><stop offset="1" stop-color="#DCE2EC"/></radialGradient><linearGradient id="g2" x1="0" y1="0" x2="0" y2="1"><stop offset="0" stop-color="#4A4458"/><stop offset="1" stop-color="#211B2B"/></linearGradient><linearGradient id="g3" x1="0" y1="0" x2="0" y2="1"><stop offset="0" stop-color="#6B6F86"/><stop offset="1" stop-color="#1E1530"/></linearGradient><linearGradient id="g4" x1="0" y1="0" x2="0" y2="1"><stop offset="0" stop-color="#6B6F86"/><stop offset="1" stop-color="#1E1530"/></linearGradient></defs><g filter="url(#stk)"><circle cx="34" cy="34" r="13" fill="url(#g2)" stroke="#2A2230" stroke-width="2.6" stroke-linejoin="round" stroke-linecap="round"/><circle cx="94" cy="34" r="13" fill="url(#g2)" stroke="#2A2230" stroke-width="2.6" stroke-linejoin="round" stroke-linecap="round"/><ellipse cx="64" cy="68" rx="46" ry="41" fill="url(#g1)" stroke="#2A2230" stroke-width="2.6" stroke-linejoin="round" stroke-linecap="round"/><ellipse cx="46" cy="64" rx="13" ry="16" fill="url(#g2)" transform="rotate(28 46 64)"/><ellipse cx="82" cy="64" rx="13" ry="16" fill="url(#g2)" transform="rotate(-28 82 64)"/><ellipse cx="47" cy="63" rx="6.34" ry="8.12" fill="#2A2230"/><ellipse cx="47.00" cy="65.28" rx="4.56" ry="4.71" fill="url(#g3)" opacity=".95"/><ellipse cx="44.97" cy="59.91" rx="2.66" ry="2.92" fill="#fff"/><circle cx="49.41" cy="66.41" r="1.38" fill="#fff"/><ellipse cx="81" cy="63" rx="6.34" ry="8.12" fill="#2A2230"/><ellipse cx="81.00" cy="65.28" rx="4.56" ry="4.71" fill="url(#g4)" opacity=".95"/><ellipse cx="78.97" cy="59.91" rx="2.66" ry="2.92" fill="#fff"/><circle cx="83.41" cy="66.41" r="1.38" fill="#fff"/><ellipse cx="34" cy="82" rx="5.5" ry="3.2" fill="#FF7BA6" opacity=".45"/><path d="M30.975,83.4 l2,-3 M33.4,83.4 l2,-3 M36.475,83.4 l2,-3" stroke="#E2557F" stroke-width="1.1" stroke-linecap="round" opacity=".7"/><ellipse cx="94" cy="82" rx="5.5" ry="3.2" fill="#FF7BA6" opacity=".45"/><path d="M90.975,83.4 l2,-3 M93.4,83.4 l2,-3 M96.475,83.4 l2,-3" stroke="#E2557F" stroke-width="1.1" stroke-linecap="round" opacity=".7"/><ellipse cx="64" cy="79" rx="5.5" ry="3.8" fill="#2A2230"/><path d="M58.8,86.22 Q61.4,89.86 64,86.48 Q66.6,89.86 69.2,86.22" fill="none" stroke="#2A2230" stroke-width="2.3" stroke-linejoin="round" stroke-linecap="round"/><ellipse cx="44" cy="40" rx="11" ry="4.5" fill="#fff" opacity="0.7" transform="rotate(-25 44 40)"/><path d="M112,71 Q113.1,74.9 117,76 Q113.1,77.1 112,81 Q110.9,77.1 107,76 Q110.9,74.9 112,71 Z" fill="#FFD23F" stroke="#2A2230" stroke-width="1.4" stroke-linejoin="round" stroke-linecap="round"/><path d="M16,94 Q16.88,97.12 20,98 Q16.88,98.88 16,102 Q15.12,98.88 12,98 Q15.12,97.12 16,94 Z" fill="#FFD23F" stroke="#2A2230" stroke-width="1.4" stroke-linejoin="round" stroke-linecap="round"/></g></svg>