<svg xmlns="http://www.w3.org/2000/svg" viewBox="-6 -6 140 140" width="128" height="128"><defs><filter id="stk" x="-25%" y="-25%" width="150%" height="150%" color-interpolation-filters="sRGB"><feMorphology in="SourceAlpha" operator="dilate" radius="4.2" result="d"/><feFlood flood-color="#FFFFFF"/><feComposite in2="d" operator="in" result="w"/><feGaussianBlur in="d" stdDeviation="2.2" result="b"/><feOffset in="b" dy="2.6" result="ob"/><feFlood flood-color="#2A2230" flood-opacity=".28"/><feComposite in2="ob" operator="in" result="sh"/><feMerge><feMergeNode in="sh"/><feMergeNode in="w"/><feMergeNode in="SourceGraphic"/></feMerge></filter><radialGradient id="g1" cx="0.4" cy="0.3" r="0.85"><stop offset="0" stop-color="#FF7A6B"/><stop offset="1" stop-color="#D7263D"/></radialGradient><linearGradient id="g2" x1="0" y1="0" x2="0" y2="1"><stop offset="0" stop-color="#A3361F"/><stop offset="1" stop-color="#1E1530"/></linearGradient><linearGradient id="g3" x1="0" y1="0" x2="0" y2="1"><stop offset="0" stop-color="#A3361F"/><stop offset="1" stop-color="#1E1530"/></linearGradient><linearGradient id="g4" x1="0" y1="0" x2="0" y2="1"><stop offset="0" stop-color="#FFE48A"/><stop offset="1" stop-color="#F2A33A"/></linearGradient></defs><g filter="url(#stk)"><path d="M58,96 Q50,118 62,124 Q66,112 70,100 Z" fill="#3E8EF7" stroke="#2A2230" stroke-width="2.6" stroke-linejoin="round" stroke-linecap="round"/><path d="M70,96 Q78,120 90,120 Q86,108 80,96 Z" fill="#FFD23F" stroke="#2A2230" stroke-width="2.6" stroke-linejoin="round" stroke-linecap="round"/><path d="M64,14 Q100,14 100,52 Q102,86 80,100 Q64,108 48,100 Q28,88 28,56 Q28,14 64,14 Z" fill="url(#g1)" stroke="#2A2230" stroke-width="2.6" stroke-linejoin="round" stroke-linecap="round"/><path d="M28,62 Q16,78 26,100 Q40,96 46,82 Z" fill="#2FBF71" stroke="#2A2230" stroke-width="2.6" stroke-linejoin="round" stroke-linecap="round"/><path d="M100,62 Q112,78 102,100 Q88,96 82,82 Z" fill="#2FBF71" stroke="#2A2230" stroke-width="2.6" stroke-linejoin="round" stroke-linecap="round"/><path d="M30,82 Q22,92 28,98 M98,82 Q106,92 100,98" fill="none" stroke="#3E8EF7" stroke-width="5" stroke-linecap="round"/><ellipse cx="46" cy="50" rx="12" ry="11" fill="#FFF6EA"/><ellipse cx="82" cy="50" rx="12" ry="11" fill="#FFF6EA"/><ellipse cx="47" cy="50" rx="6.04" ry="7.75" fill="#2A2230"/><ellipse cx="47.00" cy="52.17" rx="4.35" ry="4.50" fill="url(#g2)" opacity=".95"/><ellipse cx="45.07" cy="47.05" rx="2.54" ry="2.79" fill="#fff"/><circle cx="49.30" cy="53.26" r="1.32" fill="#fff"/><ellipse cx="81" cy="50" rx="6.04" ry="7.75" fill="#2A2230"/><ellipse cx="81.00" cy="52.17" rx="4.35" ry="4.50" fill="url(#g3)" opacity=".95"/><ellipse cx="79.07" cy="47.05" rx="2.54" ry="2.79" fill="#fff"/><circle cx="83.30" cy="53.26" r="1.32" fill="#fff"/><path d="M54,64 Q64,58 74,64 Q76,76 64,86 Q56,78 54,64 Z" fill="url(#g4)" stroke="#2A2230" stroke-width="2.6" stroke-linejoin="round" stroke-linecap="round"/><path d="M58,72 Q64,76 70,72" fill="none" stroke="#2A2230" stroke-width="1.8" stroke-linejoin="round" stroke-linecap="round"/><ellipse cx="36" cy="66" rx="5" ry="3" fill="#FF7BA6" opacity=".45"/><path d="M33.25,67.4 l2,-3 M35.4,67.4 l2,-3 M38.25,67.4 l2,-3" stroke="#E2557F" stroke-width="1.1" stroke-linecap="round" opacity=".7"/><ellipse cx="92" cy="66" rx="5" ry="3" fill="#FF7BA6" opacity=".45"/><path d="M89.25,67.4 l2,-3 M91.4,67.4 l2,-3 M94.25,67.4 l2,-3" stroke="#E2557F" stroke-width="1.1" stroke-linecap="round" opacity=".7"/><path d="M56,16 Q58,4 66,6 Q64,10 64,16" fill="url(#g1)" stroke="#2A2230" stroke-width="2" stroke-linejoin="round" stroke-linecap="round"/><ellipse cx="48" cy="26" rx="11" ry="4" fill="#fff" opacity="0.55" transform="rotate(-20 48 26)"/><path d="M112,18 Q113.32,22.68 118,24 Q113.32,25.32 112,30 Q110.68,25.32 106,24 Q110.68,22.68 112,18 Z" fill="#FFD23F" stroke="#2A2230" stroke-width="1.4" stroke-linejoin="round" stroke-linecap="round"/><path d="M14,21.5 Q14.99,25.01 18.5,26 Q14.99,26.99 14,30.5 Q13.01,26.99 9.5,26 Q13.01,25.01 14,21.5 Z" fill="#FFD23F" stroke="#2A2230" stroke-width="1.4" stroke-linejoin="round" stroke-linecap="round"/></g></svg>