<svg xmlns="http://www.w3.org/2000/svg" viewBox="-6 -6 140 140" width="128" height="128"><defs><filter id="stk" x="-25%" y="-25%" width="150%" height="150%" color-interpolation-filters="sRGB"><feMorphology in="SourceAlpha" operator="dilate" radius="4.2" result="d"/><feFlood flood-color="#FFFFFF"/><feComposite in2="d" operator="in" result="w"/><feGaussianBlur in="d" stdDeviation="2.2" result="b"/><feOffset in="b" dy="2.6" result="ob"/><feFlood flood-color="#2A2230" flood-opacity=".28"/><feComposite in2="ob" operator="in" result="sh"/><feMerge><feMergeNode in="sh"/><feMergeNode in="w"/><feMergeNode in="SourceGraphic"/></feMerge></filter><radialGradient id="g1" cx="0.4" cy="0.3" r="0.9"><stop offset="0" stop-color="#7FB6FF"/><stop offset="1" stop-color="#3557C9"/></radialGradient><linearGradient id="g2" x1="0" y1="0" x2="0" y2="1"><stop offset="0" stop-color="#2643A3"/><stop offset="1" stop-color="#1E1530"/></linearGradient><linearGradient id="g3" x1="0" y1="0" x2="0" y2="1"><stop offset="0" stop-color="#2643A3"/><stop offset="1" stop-color="#1E1530"/></linearGradient></defs><g filter="url(#stk)"><path d="M58,30 Q56,18 46,14 M64,30 L64,10 M70,30 Q72,18 82,14" fill="none" stroke="#5CC8FF" stroke-width="5" stroke-linecap="round"/><circle cx="44" cy="12" r="4" fill="#9EE3FF" stroke="#2A2230" stroke-width="1.6"/><circle cx="84" cy="12" r="4" fill="#9EE3FF" stroke="#2A2230" stroke-width="1.6"/><circle cx="64" cy="7" r="4.5" fill="#9EE3FF" stroke="#2A2230" stroke-width="1.6"/><path d="M100,78 Q120,58 122,74 Q114,80 118,92 Q110,92 100,88 Z" fill="url(#g1)" stroke="#2A2230" stroke-width="2.6" stroke-linejoin="round" stroke-linecap="round"/><path d="M10,76 Q10,34 58,32 Q104,32 106,74 Q106,106 58,106 Q10,106 10,76 Z" fill="url(#g1)" stroke="#2A2230" stroke-width="2.6" stroke-linejoin="round" stroke-linecap="round"/><path d="M16,86 Q58,104 100,86 Q96,104 58,104 Q20,104 16,86 Z" fill="#E6F1FF"/><path d="M40,90 L38,100" stroke="#B8CCF2" stroke-width="2" stroke-linecap="round"/><path d="M52,90 L50,100" stroke="#B8CCF2" stroke-width="2" stroke-linecap="round"/><path d="M64,90 L62,100" stroke="#B8CCF2" stroke-width="2" stroke-linecap="round"/><path d="M76,90 L74,100" stroke="#B8CCF2" stroke-width="2" stroke-linecap="round"/><ellipse cx="42.45" cy="66" rx="6.35" ry="8.14" fill="#2A2230"/><ellipse cx="42.45" cy="68.28" rx="4.57" ry="4.72" fill="url(#g2)" opacity=".95"/><ellipse cx="40.42" cy="62.91" rx="2.67" ry="2.93" fill="#fff"/><circle cx="44.86" cy="69.42" r="1.38" fill="#fff"/><ellipse cx="65.55" cy="66" rx="6.35" ry="8.14" fill="#2A2230"/><ellipse cx="65.55" cy="68.28" rx="4.57" ry="4.72" fill="url(#g3)" opacity=".95"/><ellipse cx="63.52" cy="62.91" rx="2.67" ry="2.93" fill="#fff"/><circle cx="67.96" cy="69.42" r="1.38" fill="#fff"/><ellipse cx="38.25" cy="74.925" rx="5.460000000000001" ry="3.2550000000000003" fill="#FF7BA6" opacity=".45"/><path d="M35.247,76.325 l2,-3 M37.65,76.325 l2,-3 M40.707,76.325 l2,-3" stroke="#E2557F" stroke-width="1.1" stroke-linecap="round" opacity=".7"/><ellipse cx="69.75" cy="74.925" rx="5.460000000000001" ry="3.2550000000000003" fill="#FF7BA6" opacity=".45"/><path d="M66.747,76.325 l2,-3 M69.15,76.325 l2,-3 M72.207,76.325 l2,-3" stroke="#E2557F" stroke-width="1.1" stroke-linecap="round" opacity=".7"/><path d="M48.54,73.581 Q51.269999999999996,77.403 54,73.854 Q56.730000000000004,77.403 59.46,73.581" fill="none" stroke="#2A2230" stroke-width="2.3" stroke-linejoin="round" stroke-linecap="round"/><ellipse cx="36" cy="46" rx="13" ry="5" fill="#fff" opacity="0.55" transform="rotate(-20 36 46)"/><path d="M112,24 Q113.32,28.68 118,30 Q113.32,31.32 112,36 Q110.68,31.32 106,30 Q110.68,28.68 112,24 Z" fill="#FFD23F" stroke="#2A2230" stroke-width="1.4" stroke-linejoin="round" stroke-linecap="round"/><path d="M16,17.5 Q16.99,21.01 20.5,22 Q16.99,22.99 16,26.5 Q15.01,22.99 11.5,22 Q15.01,21.01 16,17.5 Z" fill="#FFD23F" stroke="#2A2230" stroke-width="1.4" stroke-linejoin="round" stroke-linecap="round"/></g></svg>